<svg version="1.1" width="240" height="240" viewBox="0 0 240 240" xmlns="http://www.w3.org/2000/svg">
    <g transform="matrix(1.3333333,0,0,-1.3333333,0,240) translate(90.0002,34.5197)">
        <path d="m 0,0 c -30.64,0 -55.48,24.841 -55.48,55.48 0,19.5 10.07,36.65 25.29,46.541 V 20.15 c 4.73,-4.04 10.27,-7.17 16.36,-9.059 V 46.28 h 6.7 l 4.41,16.37 h -11.11 v 63.281 c -5.73,-1.111 -11.21,-2.91 -16.36,-5.301 C -54.76,109.23 -71.8,84.351 -71.8,55.48 -71.8,15.82 -39.65,-16.319 0,-16.319 H 0.09 V 0 Z M 71.8,55.48 C 71.8,26.431 54.55,1.421 29.74,-9.869 24.59,-12.22 19.11,-13.979 13.39,-15.05 V 46.351 H 2.28 l 4.4,16.37 h 6.71 v 37.27 C 19.46,98.17 25,95.15 29.74,91.201 V 8.66 c 15.47,9.83 25.74,27.12 25.74,46.82 0,30.63 -24.82,55.46 -55.44,55.48 v 16.32 C 39.68,127.26 71.8,95.121 71.8,55.48"
              style="fill:#ffffff;fill-opacity:1;"/>
    </g>
</svg>
