<svg version="1.1" id="svg2" width="240" height="240" viewBox="0 0 240 240" xmlns="http://www.w3.org/2000/svg">
    <defs>
        <linearGradient x1="0" y1="0" x2="1" y2="0" gradientUnits="userSpaceOnUse"
                        gradientTransform="matrix(0,180,180,0,90.000175,1.7)" id="gradient">
            <stop style="stop-opacity:1;stop-color:#e8451e" offset="0"/>
            <stop style="stop-opacity:1;stop-color:#f11c23" offset="0.5"/>
            <stop style="stop-opacity:1;stop-color:#fa1a52" offset="1"/>
        </linearGradient>
    </defs>
    <g transform="matrix(1.3333333,0,0,-1.3333333,0,240)">
        <path d="M 35.988,180 C 16.113,180 0,163.888 0,144.012 v 0 V 35.988 C 0,16.113 16.113,0 35.988,0 V 0 H 144.012 C 163.888,0 180,16.113 180,35.988 v 0 108.024 C 180,163.888 163.888,180 144.012,180 v 0 z"
              style="fill:url(#gradient);"
        />
        <g transform="translate(90.0002,34.5197)">
            <path d="m 0,0 c -30.64,0 -55.48,24.841 -55.48,55.48 0,19.5 10.07,36.65 25.29,46.541 V 20.15 c 4.73,-4.04 10.27,-7.17 16.36,-9.059 V 46.28 h 6.7 l 4.41,16.37 h -11.11 v 63.281 c -5.73,-1.111 -11.21,-2.91 -16.36,-5.301 C -54.76,109.23 -71.8,84.351 -71.8,55.48 -71.8,15.82 -39.65,-16.319 0,-16.319 H 0.09 V 0 Z M 71.8,55.48 C 71.8,26.431 54.55,1.421 29.74,-9.869 24.59,-12.22 19.11,-13.979 13.39,-15.05 V 46.351 H 2.28 l 4.4,16.37 h 6.71 v 37.27 C 19.46,98.17 25,95.15 29.74,91.201 V 8.66 c 15.47,9.83 25.74,27.12 25.74,46.82 0,30.63 -24.82,55.46 -55.44,55.48 v 16.32 C 39.68,127.26 71.8,95.121 71.8,55.48"
                  style="fill:#ffffff;fill-opacity:1;fill-rule:nonzero;stroke:none"
            />
        </g>
    </g>
</svg>
